<?xml version="1.0" encoding="UTF-8" standalone="no"?>
<svg
   version="1.1"
   width="805"
   height="446.00598"
   id="svg91"
   sodipodi:docname="desmos-graph1.svg"
   inkscape:version="1.1.2 (0a00cf5339, 2022-02-04)"
   xmlns:inkscape="http://www.inkscape.org/namespaces/inkscape"
   xmlns:sodipodi="http://sodipodi.sourceforge.net/DTD/sodipodi-0.dtd"
   xmlns="http://www.w3.org/2000/svg"
   xmlns:svg="http://www.w3.org/2000/svg">
  <sodipodi:namedview
     id="namedview93"
     pagecolor="#ffffff"
     bordercolor="#666666"
     borderopacity="1.0"
     inkscape:pageshadow="2"
     inkscape:pageopacity="0.0"
     inkscape:pagecheckerboard="0"
     showgrid="false"
     fit-margin-top="0"
     fit-margin-left="0"
     fit-margin-right="0"
     fit-margin-bottom="0"
     inkscape:zoom="0.63551222"
     inkscape:cx="475.20723"
     inkscape:cy="246.25805"
     inkscape:window-width="1920"
     inkscape:window-height="1006"
     inkscape:window-x="0"
     inkscape:window-y="25"
     inkscape:window-maximized="1"
     inkscape:current-layer="graphpaper-ad6b135d" />
  <defs
     id="defs2" />
  <g
     transform="matrix(2,0,0,2,2.5,-120.06705)"
     id="g89">
    <g
       id="background-images-ad6b135d" />
    <g
       id="graphpaper-ad6b135d">
      <path
         fill="none"
         stroke="#000000"
         class="dcg-svg-minor-gridline"
         paint-order="fill stroke markers"
         d="M 29.5,60.033525 V 283.03651"
         stroke-opacity="0.2"
         stroke-miterlimit="10"
         stroke-dasharray="none"
         id="path8"
         style="stroke-width:1" />
      <path
         fill="none"
         stroke="#000000"
         class="dcg-svg-minor-gridline"
         paint-order="fill stroke markers"
         d="M 60.5,60.033525 V 283.03651"
         stroke-opacity="0.2"
         stroke-miterlimit="10"
         stroke-dasharray="none"
         id="path10"
         style="stroke-width:1" />
      <path
         fill="none"
         stroke="#000000"
         class="dcg-svg-minor-gridline"
         paint-order="fill stroke markers"
         d="M 90.5,60.033525 V 283.03651"
         stroke-opacity="0.2"
         stroke-miterlimit="10"
         stroke-dasharray="none"
         id="path12"
         style="stroke-width:1" />
      <path
         fill="none"
         stroke="#000000"
         class="dcg-svg-minor-gridline"
         paint-order="fill stroke markers"
         d="M 121.5,60.033525 V 283.03651"
         stroke-opacity="0.2"
         stroke-miterlimit="10"
         stroke-dasharray="none"
         id="path14"
         style="stroke-width:1" />
      <path
         fill="none"
         stroke="#000000"
         class="dcg-svg-minor-gridline"
         paint-order="fill stroke markers"
         d="M 151.5,60.033525 V 283.03651"
         stroke-opacity="0.2"
         stroke-miterlimit="10"
         stroke-dasharray="none"
         id="path16"
         style="stroke-width:1" />
      <path
         fill="none"
         stroke="#000000"
         class="dcg-svg-minor-gridline"
         paint-order="fill stroke markers"
         d="M 182.5,60.033525 V 283.03651"
         stroke-opacity="0.2"
         stroke-miterlimit="10"
         stroke-dasharray="none"
         id="path18"
         style="stroke-width:1" />
      <path
         fill="none"
         stroke="#000000"
         class="dcg-svg-minor-gridline"
         paint-order="fill stroke markers"
         d="M 213.5,60.033525 V 283.03651"
         stroke-opacity="0.2"
         stroke-miterlimit="10"
         stroke-dasharray="none"
         id="path20"
         style="stroke-width:1" />
      <path
         fill="none"
         stroke="#000000"
         class="dcg-svg-minor-gridline"
         paint-order="fill stroke markers"
         d="M 243.5,60.033525 V 283.03651"
         stroke-opacity="0.2"
         stroke-miterlimit="10"
         stroke-dasharray="none"
         id="path22"
         style="stroke-width:1" />
      <path
         fill="none"
         stroke="#000000"
         class="dcg-svg-minor-gridline"
         paint-order="fill stroke markers"
         d="M 274.5,60.033525 V 283.03651"
         stroke-opacity="0.2"
         stroke-miterlimit="10"
         stroke-dasharray="none"
         id="path24"
         style="stroke-width:1" />
      <path
         fill="none"
         stroke="#000000"
         class="dcg-svg-minor-gridline"
         paint-order="fill stroke markers"
         d="M 304.5,60.033525 V 283.03651"
         stroke-opacity="0.2"
         stroke-miterlimit="10"
         stroke-dasharray="none"
         id="path26"
         style="stroke-width:1" />
      <path
         fill="none"
         stroke="#000000"
         class="dcg-svg-minor-gridline"
         paint-order="fill stroke markers"
         d="M 335.5,60.033525 V 283.03651"
         stroke-opacity="0.2"
         stroke-miterlimit="10"
         stroke-dasharray="none"
         id="path28"
         style="stroke-width:1" />
      <path
         fill="none"
         stroke="#000000"
         class="dcg-svg-minor-gridline"
         paint-order="fill stroke markers"
         d="M 365.5,60.033525 V 283.03651"
         stroke-opacity="0.2"
         stroke-miterlimit="10"
         stroke-dasharray="none"
         id="path30"
         style="stroke-width:1" />
      <path
         fill="none"
         stroke="#000000"
         class="dcg-svg-minor-gridline"
         paint-order="fill stroke markers"
         d="M 396.5,60.033525 V 283.03651"
         stroke-opacity="0.2"
         stroke-miterlimit="10"
         stroke-dasharray="none"
         id="path32"
         style="stroke-width:1" />
      <path
         fill="none"
         stroke="#000000"
         class="dcg-svg-minor-gridline"
         paint-order="fill stroke markers"
         d="M 0,280.5 H 400"
         stroke-opacity="0.2"
         stroke-miterlimit="10"
         stroke-dasharray="none"
         id="path40" />
      <path
         fill="none"
         stroke="#000000"
         class="dcg-svg-minor-gridline"
         paint-order="fill stroke markers"
         d="M 0,218.5 H 400"
         stroke-opacity="0.2"
         stroke-miterlimit="10"
         stroke-dasharray="none"
         id="path42" />
      <path
         fill="none"
         stroke="#000000"
         class="dcg-svg-minor-gridline"
         paint-order="fill stroke markers"
         d="M 0,188.5 H 400"
         stroke-opacity="0.2"
         stroke-miterlimit="10"
         stroke-dasharray="none"
         id="path44" />
      <path
         fill="none"
         stroke="#000000"
         class="dcg-svg-minor-gridline"
         paint-order="fill stroke markers"
         d="M 0,157.5 H 400"
         stroke-opacity="0.2"
         stroke-miterlimit="10"
         stroke-dasharray="none"
         id="path46" />
      <path
         fill="none"
         stroke="#000000"
         class="dcg-svg-minor-gridline"
         paint-order="fill stroke markers"
         d="M 0,127.5 H 400"
         stroke-opacity="0.2"
         stroke-miterlimit="10"
         stroke-dasharray="none"
         id="path48" />
      <path
         fill="none"
         stroke="#000000"
         class="dcg-svg-minor-gridline"
         paint-order="fill stroke markers"
         d="M 0,96.5 H 400"
         stroke-opacity="0.2"
         stroke-miterlimit="10"
         stroke-dasharray="none"
         id="path50" />
      <path
         fill="none"
         stroke="#000000"
         class="dcg-svg-minor-gridline"
         paint-order="fill stroke markers"
         d="M 0,66.5 H 400"
         stroke-opacity="0.2"
         stroke-miterlimit="10"
         stroke-dasharray="none"
         id="path52" />
      <path
         fill="none"
         stroke="#000000"
         class="dcg-svg-major-gridline"
         paint-order="fill stroke markers"
         d="M 151.5,60.033525 V 283.03651"
         stroke-opacity="0.25"
         stroke-miterlimit="10"
         stroke-dasharray="none"
         id="path58"
         style="stroke-width:1" />
      <path
         fill="none"
         stroke="#000000"
         class="dcg-svg-major-gridline"
         paint-order="fill stroke markers"
         d="M 304.5,60.033525 V 283.03651"
         stroke-opacity="0.25"
         stroke-miterlimit="10"
         stroke-dasharray="none"
         id="path60"
         style="stroke-width:1" />
      <path
         fill="none"
         stroke="#000000"
         class="dcg-svg-major-gridline"
         paint-order="fill stroke markers"
         d="M 0,96.5 H 400"
         stroke-opacity="0.25"
         stroke-miterlimit="10"
         stroke-dasharray="none"
         id="path62" />
      <g
         id="axis-ad6b135d">
        <g
           id="xaxis-ad6b135d">
          <title
             id="title67">X axis</title>
          <g
             id="g71">
            <path
               fill="none"
               stroke="#000000"
               class="dcg-svg-axis-line"
               paint-order="fill stroke markers"
               d="M 0,250 H 400"
               stroke-opacity="0.9"
               stroke-miterlimit="10"
               stroke-width="1.5"
               stroke-dasharray="none"
               id="path69" />
          </g>
        </g>
        <g
           id="g74" />
      </g>
    </g>
    <g
       id="expressions-ad6b135d">
      <g
         id="sketch-ad6b135d">
        <title
           id="title78">Expression 1</title>
        <path
           fill="#c74440"
           stroke="none"
           paint-order="stroke fill markers"
           d=""
           fill-opacity="0.4"
           id="path80" />
        <g
           id="g84">
          <path
             fill="none"
             stroke="#c74440"
             class="dcg-svg-curve"
             paint-order="fill stroke markers"
             d="m 0,154.81208 v 0 l 4.1981938,1.52642 5.7603124,2.40332 9.0798148,3.7944 4.100561,1.40577 3.417135,0.90156 3.124237,0.5557 2.928972,0.25425 2.83134,-0.021 2.733708,-0.28084 2.733707,-0.54057 2.83134,-0.82926 2.928973,-1.132 3.22187,-1.53717 3.612399,-2.02931 4.588723,-2.90853 11.422993,-7.38874 3.319502,-1.75071 2.83134,-1.2079 2.538443,-0.80737 2.343178,-0.47836 2.245545,-0.19149 2.147913,0.0812 2.050281,0.33301 2.050281,0.59333 2.05028,0.86119 2.147913,1.19415 2.245546,1.56893 2.343178,1.9825 2.538441,2.53427 2.73371,3.15575 3.0266,3.96731 3.41714,5.00006 3.9053,6.25167 5.36978,9.17882 8.78692,15.04149 3.90529,6.09452 3.22187,4.51774 2.92897,3.60086 2.53845,2.66835 2.34317,2.05031 2.14792,1.50602 1.95265,1.04361 1.85501,0.6946 1.75739,0.38554 1.75738,0.11727 1.75738,-0.15193 1.75739,-0.41992 1.75738,-0.6846 1.85501,-1.00375 1.95265,-1.35888 2.14792,-1.83723 2.34317,-2.38864 2.63608,-3.12614 3.0266,-4.09362 3.41714,-5.15674 4.10056,-6.73477 7.32243,-12.68467 5.66268,-9.55112 3.9053,-6.06491 3.41713,-4.78481 3.12424,-3.85595 2.73371,-2.91712 2.53844,-2.29912 2.34318,-1.75809 2.24554,-1.35082 2.14792,-0.98582 2.14791,-0.69024 2.05028,-0.39023 2.1844,-0.13835 2.11143,0.124 2.24554,0.39062 2.44081,0.69996 2.63608,1.03966 2.92897,1.44458 3.51477,2.0411 4.97925,3.23555 8.68928,5.66403 3.9053,2.19469 3.3195,1.56733 3.02661,1.14352 2.83134,0.79839 2.83134,0.52324 2.73371,0.24092 2.7337,-0.014 2.83134,-0.27038 3.02661,-0.55364 3.3195,-0.8823 3.80766,-1.29803 4.88162,-1.96629 12.78985,-5.29501 4.10056,-1.32383 3.6124,-0.89327 3.41714,-0.57494 3.3195,-0.29091 3.3195,-0.0244 3.41714,0.24327 3.61239,0.52837 3.9053,0.8392 4.68636,1.2846 7.71296,2.43737 7.12716,2.14622 4.68636,1.13652 4.10056,0.72644 3.80767,0.41246 3.71003,0.14337 3.80766,-0.11759 3.9053,-0.382 4.29582,-0.68594 5.07689,-1.08463 8.59165,-2.15886 7.32243,-1.725 0.2929,-0.0608"
             stroke-linecap="round"
             stroke-linejoin="round"
             stroke-miterlimit="10"
             stroke-width="2.5"
             stroke-opacity="0.9"
             stroke-dasharray="none"
             id="path82" />
        </g>
      </g>
    </g>
    <g
       id="labels-ad6b135d" />
  </g>
</svg>
