<?xml version="1.0" encoding="UTF-8" standalone="no"?>
<!-- Generator: Adobe Illustrator 16.0.0, SVG Export Plug-In . SVG Version: 6.00 Build 0)  -->

<svg
   xmlns:dc="http://purl.org/dc/elements/1.1/"
   xmlns:cc="http://creativecommons.org/ns#"
   xmlns:rdf="http://www.w3.org/1999/02/22-rdf-syntax-ns#"
   xmlns:svg="http://www.w3.org/2000/svg"
   xmlns="http://www.w3.org/2000/svg"
   xmlns:xlink="http://www.w3.org/1999/xlink"
   xmlns:sodipodi="http://sodipodi.sourceforge.net/DTD/sodipodi-0.dtd"
   xmlns:inkscape="http://www.inkscape.org/namespaces/inkscape"
   version="1.1"
   id="Layer_1"
   x="0px"
   y="0px"
   width="932.34583"
   height="497.29562"
   viewBox="0 0 932.34582 497.29562"
   enable-background="new 0 0 1224 1224"
   xml:space="preserve"
   sodipodi:docname="Perceptron_example_wikipedia_xor.svg"
   inkscape:version="0.92.5 (2060ec1f9f, 2020-04-08)"><metadata
   id="metadata1249"><rdf:RDF><cc:Work
       rdf:about=""><dc:format>image/svg+xml</dc:format><dc:type
         rdf:resource="http://purl.org/dc/dcmitype/StillImage" /><dc:title /></cc:Work></rdf:RDF></metadata><defs
   id="defs1247">
	<defs
   id="defs1145">
		<rect
   height="1103.2841"
   width="1153.881"
   y="58.803001"
   x="37.118999"
   id="SVGID_7_" />
	</defs>
	<clipPath
   id="SVGID_8_">
		<use
   id="use1147"
   overflow="visible"
   xlink:href="#SVGID_7_"
   style="overflow:visible"
   x="0"
   y="0"
   width="100%"
   height="100%" />
	</clipPath>
	
	
		
	
		
	
		
	
		
	
		
	
		
	
	
	
	
	
	
	
		
	
		
	
	
	
	
	
		
	
		
</defs><sodipodi:namedview
   pagecolor="#ffffff"
   bordercolor="#666666"
   borderopacity="1"
   objecttolerance="10"
   gridtolerance="10"
   guidetolerance="10"
   inkscape:pageopacity="0"
   inkscape:pageshadow="2"
   inkscape:window-width="1920"
   inkscape:window-height="1007"
   id="namedview1245"
   showgrid="false"
   fit-margin-top="0"
   fit-margin-left="0"
   fit-margin-right="0"
   fit-margin-bottom="0"
   inkscape:zoom="0.64379085"
   inkscape:cx="197.89169"
   inkscape:cy="187.18992"
   inkscape:window-x="0"
   inkscape:window-y="25"
   inkscape:window-maximized="1"
   inkscape:current-layer="Layer_1" />







<text
   transform="rotate(-90)"
   font-size="23.2601"
   id="text1080"
   style="font-size:23.26009941px;font-family:GothamMedium"
   x="-254.52521"
   y="17.672224">size</text>










<g
   id="g1136"
   transform="translate(-660.30628,-665.36639)">
	<defs
   id="defs1115">
		<rect
   id="SVGID_5_"
   x="37.118999"
   y="58.803001"
   width="1153.881"
   height="1103.2841" />
	</defs>
	<clipPath
   id="SVGID_6_">
		<use
   xlink:href="#SVGID_5_"
   overflow="visible"
   id="use1117"
   style="overflow:visible"
   x="0"
   y="0"
   width="100%"
   height="100%" />
	</clipPath>
	
		
	
		
	
		
	
	
	
	
		<path
   clip-path="url(#SVGID_6_)"
   d="m 1165.135,1068.745 c 0,-0.468 -0.019,-0.821 0,-1.173 0.052,-0.87 0.164,-1.738 0.437,-2.57 0.156,-0.477 0.198,-0.929 0.104,-1.41 -0.058,-0.29 -0.276,-0.48 -0.435,-0.709 -0.045,-0.062 -0.1,-0.133 -0.01,-0.19 0.066,-0.042 0.131,0 0.179,0.047 0.041,0.036 0.074,0.081 0.099,0.128 0.404,0.759 0.962,1.403 1.616,1.975 0.15,0.131 0.256,0.293 0.315,0.48 0.255,0.791 0.572,1.561 0.92,2.316 0.207,0.448 0.304,0.898 0.319,1.387 0.017,0.526 -0.103,1.035 -0.163,1.55 -0.072,0.602 -0.216,1.192 -0.44,1.763 -0.199,0.51 -0.455,0.993 -0.673,1.492 -0.252,0.575 -0.502,1.173 -1.331,1.264 -0.472,0.052 -0.689,-0.026 -0.675,-0.48 0.01,-0.277 -0.01,-0.549 -0.044,-0.826 -0.094,-0.664 -0.165,-1.334 -0.212,-2.002 -0.073,-1.053 0,-2.107 -0.012,-3.042 z m -26.417,-55.085 c -1.02,0.488 -2.048,0.962 -3.043,1.491 -0.698,0.372 -1.433,0.636 -2.196,0.804 -0.506,0.11 -1.018,0.227 -1.517,0.347 -0.493,0.117 -1.03,0.095 -1.488,0.383 -0.323,0.203 -0.641,0.203 -0.983,-0.112 -0.387,-0.354 -0.914,-0.557 -1.355,-0.867 -0.533,-0.376 -1.095,-0.719 -1.663,-1.05 -0.961,-0.561 -1.989,-0.9 -3.132,-0.954 -0.988,-0.048 -1.974,0.018 -2.962,-0.027 -0.61,-0.027 -1.229,0.111 -1.843,0.224 -0.636,0.114 -1.25,0.287 -1.867,0.453 -0.629,0.17 -1.277,0.314 -1.834,0.68 -0.201,0.133 -0.453,0.159 -0.677,0.238 -0.574,0.203 -0.985,0.615 -1.476,0.923 -0.305,0.191 -0.459,0.518 -0.679,0.783 -0.605,0.732 -1.216,1.464 -1.714,2.277 -0.27,0.441 -0.757,0.566 -1.276,0.527 -0.147,-0.011 -0.296,-0.037 -0.424,0.037 -0.412,0.236 -0.868,0.228 -1.326,0.241 -1.011,0.028 -2.035,0.093 -3.015,-0.158 -0.566,-0.145 -1.18,-0.068 -1.709,-0.356 -0.065,-0.035 -0.15,-0.057 -0.226,-0.053 -0.664,0.033 -1.322,-0.109 -1.941,-0.26 -1.436,-0.348 -2.876,-0.163 -4.312,-0.191 -0.653,-0.012 -1.293,0.145 -1.908,0.382 -0.226,0.088 -0.442,0.173 -0.656,0.286 -0.792,0.414 -1.036,1.182 -0.371,1.94 0.757,0.863 1.511,1.729 2.333,2.535 0.553,0.542 1.177,1.007 1.796,1.476 0.874,0.659 1.763,1.296 2.716,1.845 0.82,0.473 1.699,0.825 2.62,1.067 0.847,0.223 1.579,0.577 2.136,1.256 0.402,0.492 0.957,0.854 1.607,0.871 0.381,0.012 0.828,0.021 1.191,-0.199 0.577,-0.35 1.215,-0.562 1.862,-0.733 0.37,-0.099 0.77,-0.11 1.157,-0.123 0.207,-0.01 0.349,0.142 0.378,0.344 0.088,0.612 0.403,1.146 0.604,1.719 0.196,0.559 0.565,1.021 0.811,1.55 0.171,0.367 0.495,0.603 0.858,0.773 0.176,0.083 0.332,0.173 0.457,0.312 0.331,0.371 0.713,0.695 1.021,1.09 0.173,0.22 0.128,0.482 0.27,0.711 0.225,0.361 0.612,0.629 0.699,1.066 0.144,0.719 0.646,1.32 0.7,2.073 0.026,0.355 0.184,0.7 0.286,1.05 0.254,0.86 0.327,1.759 0.616,2.613 0.15,0.449 0.458,0.806 0.743,1.166 0.343,0.436 0.539,0.896 0.562,1.437 0.01,0.19 0,0.394 0.063,0.569 0.263,0.732 0.215,1.473 0.097,2.215 -0.076,0.475 0.083,0.912 0.206,1.351 0.163,0.573 0.271,1.159 0.418,1.737 0.141,0.558 0.357,1.073 0.643,1.566 0.158,0.273 0.293,0.56 0.342,0.858 0.142,0.885 0.581,1.698 0.652,2.599 0.018,0.218 0.075,0.454 0.187,0.643 0.276,0.472 0.166,0.952 0.103,1.435 -0.13,1.005 -0.197,2.008 0.074,3.006 0.091,0.328 0.172,0.663 0.208,1 0.035,0.338 0.049,0.669 0.205,0.991 0.144,0.301 0.154,0.637 0.144,0.971 -0.032,1.022 -0.025,2.044 -0.049,3.066 -0.017,0.742 0.052,1.484 0.438,2.169 0.161,0.287 0.095,0.628 0.054,0.944 -0.062,0.497 -0.171,0.988 -0.193,1.491 -0.02,0.475 -0.189,0.917 -0.386,1.346 -0.186,0.399 -0.253,0.832 -0.455,1.229 -0.282,0.551 -0.719,0.768 -1.339,0.615 -0.473,-0.115 -0.975,-0.105 -1.288,0.297 -0.4,0.514 -0.995,0.681 -1.535,0.962 -0.419,0.218 -0.827,0.459 -1.223,0.715 -0.223,0.144 -0.189,0.307 0.07,0.477 0.252,0.165 0.576,0.225 0.751,0.507 0.097,0.155 0.21,0.292 0.231,0.485 0.028,0.245 0.188,0.369 0.457,0.371 0.267,0 0.533,0.019 0.799,0.037 0.205,0.015 0.385,0.085 0.527,0.241 0.199,0.218 0.463,0.232 0.701,0.102 0.483,-0.266 1,-0.233 1.519,-0.213 0.939,0.037 1.878,0.145 2.819,0.031 0.6,-0.07 0.57,-0.113 0.741,-0.661 0.182,-0.575 0.261,-1.163 0.379,-1.746 0.052,-0.253 0.165,-0.459 0.405,-0.595 0.373,-0.212 0.551,-0.565 0.635,-0.942 0.137,-0.612 0.308,-1.226 0.242,-1.866 -0.04,-0.385 0.096,-0.698 0.418,-0.957 0.359,-0.291 0.37,-0.694 0.248,-1.09 -0.071,-0.227 -0.069,-0.428 10e-4,-0.652 0.312,-1.001 0.583,-2.015 0.514,-3.07 -0.038,-0.573 0.232,-1.082 0.29,-1.633 0.021,-0.212 0.043,-0.424 0.053,-0.636 0.029,-0.604 0.129,-1.212 0.088,-1.81 -0.076,-1.072 0.071,-2.148 -0.116,-3.223 -0.101,-0.571 -0.131,-1.164 -0.107,-1.752 0.01,-0.195 0.087,-0.285 0.295,-0.186 0.785,0.377 1.549,0.797 2.341,1.152 0.939,0.423 1.906,0.791 2.95,0.973 0.581,0.101 1.174,0.053 1.743,0.217 0.328,0.095 0.474,0.305 0.479,0.61 0.011,0.47 0,0.938 0,1.497 0.037,0.799 -0.097,1.667 -0.228,2.545 -0.146,0.969 -0.399,1.914 -0.525,2.885 -0.092,0.712 -0.021,1.387 0.186,2.064 0.104,0.341 0.129,0.691 0.021,1.042 -0.108,0.363 -0.136,0.729 -0.072,1.107 0.107,0.649 -0.132,1.269 -0.203,1.901 -0.049,0.432 -0.166,0.833 -0.385,1.209 -0.053,0.094 -0.107,0.195 -0.188,0.262 -0.709,0.574 -1.023,1.339 -1.167,2.188 0,0.031 -0.01,0.062 -0.018,0.094 -0.203,0.771 0.177,1.306 1.013,1.373 0.43,0.035 0.86,0.113 1.297,0.03 0.295,-0.056 0.575,0.06 0.851,0.13 0.692,0.176 1.368,0.078 2.049,-0.049 0.206,-0.038 0.416,-0.069 0.627,-0.083 0.677,-0.044 0.991,-0.298 1.156,-0.935 0.217,-0.838 0.27,-1.681 0.135,-2.539 -0.092,-0.578 -0.057,-1.179 -0.158,-1.748 -0.095,-0.541 0.053,-0.979 0.206,-1.471 0.259,-0.825 0.182,-1.692 0.129,-2.545 -0.044,-0.702 -0.117,-1.395 0.185,-2.074 0.158,-0.354 0.162,-0.761 0.16,-1.133 -0.01,-0.924 0.279,-1.78 0.525,-2.65 0.128,-0.451 0.189,-0.916 0.283,-1.37 0.123,-0.601 0.255,-1.21 0.443,-1.798 0.096,-0.298 0.093,-0.586 0.105,-0.882 0.02,-0.42 0.184,-0.562 0.608,-0.668 1.075,-0.267 2.18,-0.249 3.271,-0.341 0.154,-0.012 0.315,0 0.465,0.033 0.531,0.121 1.021,-0.135 1.537,-0.146 0.586,-0.014 1.163,-0.067 1.756,0.032 0.349,0.059 0.746,-0.022 1.113,-0.068 0.659,-0.084 1.322,-0.125 1.982,-0.2 0.225,-0.024 0.372,0.088 0.496,0.261 0.259,0.358 0.446,0.758 0.677,1.132 0.28,0.456 0.686,0.759 1.107,1.034 0.6,0.39 1.152,0.83 1.732,1.241 0.586,0.416 1.138,0.87 1.797,1.197 0.892,0.443 1.663,1.025 2.031,1.981 0.104,0.271 0.348,0.466 0.525,0.693 0.25,0.318 0.442,0.643 0.473,1.035 0.05,0.636 0.318,1.225 0.355,1.873 0.036,0.604 -0.023,1.194 -0.067,1.782 -0.048,0.675 -0.136,1.356 -0.352,2.009 -0.139,0.42 -0.308,0.826 -0.737,1.065 -0.038,0.021 -0.071,0.067 -0.108,0.069 -0.815,0.052 -1.336,0.684 -2.045,0.962 -0.644,0.253 -1.14,0.786 -1.337,1.472 -0.125,0.435 0.097,0.642 0.551,0.709 0.559,0.084 1.137,-0.018 1.683,0.169 0.03,0.011 0.067,0.014 0.099,0.01 0.899,-0.184 1.726,0.194 2.586,0.311 0.393,0.052 0.715,0.279 1.079,0.408 0.306,0.107 0.594,0.165 0.903,0.037 0.148,-0.062 0.314,-0.077 0.452,0 0.244,0.145 0.507,0.15 0.774,0.142 0.27,-0.01 0.531,0.02 0.794,0.078 1.06,0.236 2.071,0.016 3.071,-0.306 0.129,-0.042 0.272,-0.092 0.321,-0.214 0.143,-0.355 0.435,-0.545 0.763,-0.722 0.408,-0.222 0.586,-0.598 0.647,-1.027 0.029,-0.193 0.078,-0.385 0.175,-0.547 0.249,-0.429 0.339,-0.906 0.45,-1.368 0.233,-0.968 0.495,-1.925 0.961,-2.815 0.157,-0.304 0.231,-0.621 0.309,-0.94 0.218,-0.92 0.596,-1.778 1.035,-2.617 0.281,-0.533 0.478,-1.104 0.645,-1.676 0.136,-0.468 -0.073,-0.914 -0.328,-1.304 -0.304,-0.468 -0.653,-0.905 -1.062,-1.306 -0.8,-0.782 -1.321,-1.721 -1.614,-2.785 -0.107,-0.388 -0.284,-0.761 -0.463,-1.126 -0.188,-0.388 -0.297,-0.771 -0.218,-1.204 0.212,-1.148 -0.068,-2.236 -0.405,-3.335 -0.145,-0.474 -0.355,-0.995 -0.068,-1.539 0.132,-0.251 0.103,-0.583 0.128,-0.881 0.044,-0.502 0.299,-0.95 0.364,-1.453 0.104,-0.79 0.272,-1.571 0.204,-2.374 -0.034,-0.393 -0.014,-0.787 -0.087,-1.178 -0.01,-0.048 0,-0.107 0.02,-0.154 0.243,-0.599 0.131,-1.133 -0.208,-1.686 -0.431,-0.705 -0.737,-1.464 -0.931,-2.275 -0.14,-0.582 -0.388,-1.154 -0.75,-1.66 -0.113,-0.159 -0.117,-0.343 -0.169,-0.514 -0.175,-0.569 -0.536,-1.075 -0.602,-1.684 -0.021,-0.18 -0.055,-0.35 -0.027,-0.534 0.068,-0.431 0.067,-0.858 0.035,-1.3 -0.036,-0.496 0.08,-1.007 0.247,-1.502 0.407,-1.209 0.715,-2.454 0.653,-3.728 -0.043,-0.893 -0.097,-1.797 -0.352,-2.678 -0.164,-0.569 -0.181,-1.175 -0.35,-1.75 -0.22,-0.747 -0.343,-1.528 -0.643,-2.242 -0.386,-0.925 -0.738,-1.873 -1.362,-2.697 -0.368,-0.49 -0.583,-1.077 -0.963,-1.566 -0.672,-0.868 -1.237,-1.795 -1.723,-2.77 -0.149,-0.299 -0.463,-0.496 -0.646,-0.76 -0.326,-0.469 -0.71,-0.898 -1.009,-1.388 -0.453,-0.743 -1.113,-1.289 -1.885,-1.722 -0.22,-0.123 -0.417,-0.283 -0.636,-0.409 -0.107,-0.059 -0.226,-0.165 -0.369,-0.069 -0.139,0.093 -0.147,0.239 -0.115,0.377 0.151,0.65 0.215,1.317 0.472,1.95 0.422,1.033 0.995,1.995 1.463,3.006 0.339,0.728 0.685,1.455 0.937,2.219 0.096,0.291 0.271,0.56 0.381,0.848 0.386,1.02 0.77,2.04 1.134,3.066 0.161,0.453 0.236,0.935 0.408,1.383 0.62,1.607 0.326,3.273 0.312,4.91 -0.015,1.553 -0.438,3.07 -1.036,4.518 -0.473,1.143 -0.819,1.328 -2.052,0.994 -1.045,-0.284 -2.066,-0.171 -3.106,-0.121 -0.82,0.04 -1.629,0.179 -2.456,0.17 -0.716,-0.01 -1.396,-0.271 -2.112,-0.211 -0.902,0.074 -1.808,0.038 -2.714,0.155 -1.369,0.179 -2.73,0.512 -4.136,0.322 -0.394,-0.054 -0.802,-0.047 -1.2,0.025 -0.218,0.04 -0.422,-0.025 -0.626,-0.071 -0.578,-0.129 -1.161,-0.247 -1.73,-0.428 -0.532,-0.167 -1.09,-0.268 -1.642,-0.377 -0.616,-0.122 -1.212,-0.32 -1.839,-0.413 -0.33,-0.049 -0.691,-0.144 -0.998,-0.326 -0.568,-0.341 -1.255,-0.413 -1.831,-0.743 -0.257,-0.146 -0.545,-0.239 -0.811,-0.372 -0.747,-0.374 -1.467,-0.8 -2.237,-1.132 -0.02,-0.01 -0.041,-0.02 -0.055,-0.036 -0.667,-0.749 -1.454,-1.405 -1.949,-2.288 -0.252,-0.453 -0.103,-0.92 0.018,-1.373 0.145,-0.544 0.491,-1.025 0.569,-1.595 0.01,-0.053 0.03,-0.106 0.024,-0.157 -0.09,-0.821 0.076,-1.635 0.068,-2.453 0,-0.117 0.01,-0.235 0.01,-0.353 0,-0.183 0.098,-0.275 0.288,-0.275 0.836,0 1.674,-0.043 2.505,0.01 0.351,0.021 0.688,0.224 1.066,0.174 0.787,-0.102 1.454,-0.397 1.82,-1.111 0.256,-0.498 0.646,-0.92 0.851,-1.445 0.033,-0.083 0.113,-0.166 0.196,-0.214 1.205,-0.709 2.078,-1.749 2.979,-2.76 0.565,-0.633 1.038,-1.324 1.523,-2.014 0.466,-0.66 0.828,-1.379 1.339,-2.015 0.279,-0.347 0.453,-0.8 0.648,-1.216 0.393,-0.834 0.699,-1.701 1.012,-2.565 0.055,-0.151 0.03,-0.272 -0.066,-0.388 -0.239,-0.279 -0.552,-0.514 -0.899,-0.581 -0.575,-0.112 -1.146,-0.221 -1.771,-0.092 -0.555,0.115 -1.127,0.207 -1.684,0.327 -0.357,0.076 -0.714,0.215 -1.067,0.328 -0.496,0.157 -0.925,0.448 -1.434,0.578 -0.313,0.084 -0.615,0.233 -0.911,0.375 z"
   id="path1132"
   inkscape:connector-curvature="0"
   style="fill:none;stroke:#c6262c;stroke-width:3.27600002;stroke-linecap:round;stroke-linejoin:round" />
	<path
   clip-path="url(#SVGID_6_)"
   d="m 1142.714,1052.062 c 2.288,0 4.144,-1.855 4.144,-4.143 0,-2.289 -1.855,-4.145 -4.144,-4.145 -2.289,0 -4.143,1.855 -4.143,4.145 0,2.288 1.855,4.143 4.143,4.143"
   id="path1134"
   inkscape:connector-curvature="0"
   style="fill:#c6262c" />
</g>
<polyline
   points="  702.757,677.586 702.757,1121.646 1146.816,1121.646 "
   id="polyline1138"
   style="fill:none;stroke:#000000;stroke-width:3.27600002;stroke-linecap:round;stroke-linejoin:round"
   transform="translate(-660.30628,-665.36639)" />
<polyline
   points="  698.332,689.746 702.757,677.586 707.183,689.746 "
   id="polyline1140"
   style="fill:none;stroke:#000000;stroke-width:3.27600002;stroke-linecap:round;stroke-linejoin:round"
   transform="translate(-660.30628,-665.36639)" />
<polyline
   points="  1134.656,1117.221 1146.816,1121.646 1134.656,1126.07 "
   id="polyline1142"
   style="fill:none;stroke:#000000;stroke-width:3.27600002;stroke-linecap:round;stroke-linejoin:round"
   transform="translate(-660.30628,-665.36639)" />
<g
   id="g1152"
   clip-path="url(#SVGID_8_)"
   transform="translate(-660.30628,-665.36639)">
		<text
   style="font-size:23.26009941px;font-family:GothamMedium"
   id="text1150"
   font-size="23.2601"
   transform="translate(843.3613,1158.957)">domestication</text>



	</g><path
   style="fill:none;stroke:#c6262c;stroke-width:3.27600002;stroke-linecap:round;stroke-linejoin:round"
   inkscape:connector-curvature="0"
   id="path1160"
   d="m 808.916,855.438 c -0.218,0.892 -0.471,1.817 -0.436,2.717 0.138,3.458 -1.305,6.47 -2.511,9.545 l -0.226,0.6 c -1.194,0.01 -2.93,0.058 -4.609,0.227 0.095,-0.176 0.196,-0.349 0.311,-0.511 1.084,-1.544 0.781,-4.19 1.746,-5.743 0.414,-0.665 0.589,-2.15 0.526,-2.887 -0.387,-4.503 2.586,-6.808 3.152,-11.163 0.078,3.66 2.921,3.636 2.047,7.215 z m 82.652,11.149 c 3.243,-3.829 2.574,-7.142 3.822,-11.661 0.165,-0.593 0.613,-0.879 0.263,-1.313 -2.297,-2.849 -5.433,-7.961 -7.051,-10.196 -0.207,-0.285 -0.712,-0.437 -0.612,-1.02 0.311,0.142 0.543,0.226 0.754,0.344 9.849,5.475 13.839,14.318 14.434,25.089 0.068,1.242 -0.107,2.718 -1.33,3.233 -2.319,0.975 -3.321,2.985 -4.536,4.879 -1.323,2.064 -0.738,3.337 1.71,3.705 3.929,0.587 7.568,-0.356 11.032,-2.137 0.853,-0.438 1.587,-1.084 1.364,-2.171 -0.931,-4.515 0.468,-8.892 0.698,-13.337 0.142,-2.76 0.908,-5.648 -1.068,-8.167 -2.093,-2.665 -5.044,-5.404 -6.367,-8.533 -1.029,-2.433 -2.302,-4.748 -3.891,-6.876 -2.385,-3.194 -3.521,-6.543 -5.91,-9.734 -0.943,-1.26 -1.726,-2.574 -1.68,-4.338 2.002,2.477 5.166,4.615 7.099,6.776 2.907,3.252 4.85,7.054 7.406,10.47 2.095,2.796 3.164,5.484 5.522,7.938 0.36,0.377 0.881,0.776 1.478,0.513 0.632,-0.279 0.512,-0.93 0.508,-1.462 -0.013,-1.724 -0.04,-3.46 0.721,-5.057 0.755,-1.581 0.81,-3.158 0.336,-4.822 -0.59,-2.073 -0.428,-4.138 0.354,-6.136 0.393,-1.003 0.596,-2.015 0.316,-3.058 -1.15,-4.297 -2.74,-8.43 -3.387,-12.922 -0.634,-4.404 -3.839,-7.89 -6.703,-11.143 -2.301,-2.612 -4.425,-5.239 -5.912,-8.352 -0.959,-2.004 -2.327,-3.594 -4.137,-4.832 -2.034,-1.396 -3.87,-2.966 -5.401,-4.942 -4.416,-5.705 -10.5,-8.283 -17.519,-8.945 -6.93,-0.655 -13.89,-0.456 -20.817,-0.249 -5.816,0.174 -11.42,-1.756 -17.224,-1.241 -0.463,0.041 -0.985,-0.144 -1.421,-0.349 -4.318,-2.026 -8.84,-2.929 -13.61,-2.568 -0.272,0.02 -0.972,0.192 -0.807,-0.307 0.479,-1.448 -0.696,-1.145 -1.299,-1.272 -0.893,-0.19 -1.834,-0.141 -2.744,-0.27 -2.903,-0.411 -6.124,0.333 -8.674,-1.261 -4.289,-2.681 -9.162,-4.162 -13.392,-6.925 -2.83,-1.849 -5.859,-3.355 -8.974,-4.688 -1.807,-0.771 -3.982,-1.233 -5.267,-2.543 -2.197,-2.239 -4.898,-2.932 -7.653,-3.713 -3.274,-0.926 -6.141,-2.437 -8.308,-5.153 -0.682,-0.854 -1.546,-1.588 -2.415,-2.261 -1.52,-1.172 -2.088,-0.936 -2.258,0.992 -0.127,1.442 -0.579,1.657 -1.843,0.962 -1.502,-0.826 -3.103,-1.473 -4.68,-2.155 -0.441,-0.191 -1.017,-0.356 -1.381,0.077 -0.374,0.444 -0.043,0.958 0.198,1.366 1.188,2.007 2.357,4.027 3.639,5.974 0.708,1.075 0.618,1.669 -0.422,2.554 -3.671,3.123 -7.18,6.395 -7.444,11.736 -0.052,1.035 -0.968,1.782 -1.717,2.539 -3.135,3.163 -6.585,5.878 -10.657,7.753 -1.193,0.55 -1.825,1.435 -1.465,2.803 0.512,1.946 4.015,4.25 6.028,4.13 4.068,-0.244 7.358,-2.175 10.417,-4.626 1.544,-1.238 3.185,-2.256 5.2,-2.65 -1.475,1.233 -2.907,2.49 -4.025,4.024 -1.1,1.509 -2.442,2.708 -3.924,3.822 -0.588,0.443 -2.624,5.066 -2.125,5.396 0.536,0.351 0.444,0.298 1.271,0.874 1.891,1.317 3.687,0.929 5.377,-0.514 1.823,-1.554 3.671,-3.078 5.542,-4.572 1.754,-1.396 2.091,-1.243 2.485,0.892 0.192,1.04 0.279,2.055 0.03,3.097 -0.127,0.531 -0.259,1.155 0.223,1.562 1.096,0.927 1.516,2.32 2.868,3.177 5.394,3.415 8.167,9.492 13.434,13.238 2.87,2.041 4.592,5.688 6.84,8.604 0.407,0.527 0.765,1.21 1.543,1.183 1.762,-0.064 2.662,0.968 3.314,2.404 0.202,0.44 0.425,1.117 0.767,1.209 2.917,0.783 3.075,3.755 4.583,5.638 1.136,1.42 1.688,3.153 1.977,4.91 0.858,5.178 0.639,10.387 0.297,15.598 -0.298,4.552 -1.914,8.883 -2.276,13.399 -0.284,3.548 -1.251,6.864 -2.495,10.136 -1.064,2.801 -2.527,4.95 -6.142,4.66 -1.735,-0.14 -3.452,0.762 -4.83,1.942 -0.646,0.554 -1.254,1.312 -0.914,2.251 0.323,0.887 1.233,0.871 2.025,0.984 3.186,0.459 6.502,-0.393 9.605,0.959 0.312,0.136 0.729,0.046 1.098,0.029 1.5,-0.069 2.999,-0.141 4.499,-0.212 l 2.055,-4.682 4.603,-0.376 -0.064,0.17 c 2.31,-0.108 2.989,-0.485 5.299,-0.577 1.608,-0.065 2.622,-0.598 2.981,-2.338 0.178,-0.857 0.429,-2.222 1.438,-2.297 1.096,-0.08 1.136,-0.736 1.412,-1.353 0.479,-1.062 0.839,-1.135 1.38,-2.162 3.433,-6.508 4.097,-9.584 5.44,-16.732 0.933,-4.967 0.611,-10.16 2.791,-14.914 0.238,-0.519 0.137,-1.212 0.119,-1.822 -0.033,-1.151 0.46,-1.948 1.398,-2.615 3.202,-2.273 6.365,-4.598 9.538,-6.912 1.243,-0.906 2.524,-1.35 4.131,-0.982 1.869,0.428 3.786,0.259 5.674,-0.108 1.748,-0.34 3.517,-0.825 5.291,-0.443 1.728,0.371 3.397,0.296 5.112,0.01 3.246,-0.54 4.227,0.02 5.023,3.243 0.624,2.516 1.949,4.582 3.375,6.675 3.719,5.466 9.86,8.431 13.88,13.567 0.036,0.048 0.098,0.074 0.143,0.115 7.846,7.209 8.686,15.54 3.842,24.249 -0.695,1.25 -1.699,2.457 -3.311,2.266 -2.609,-0.31 -4.432,1.151 -6.344,2.465 -0.783,0.538 -1.46,1.255 -1.058,2.313 0.377,0.996 1.305,1.29 2.264,1.263 3.788,-0.112 7.58,-0.197 11.359,-0.446 3.006,-0.2 3.704,-0.986 4.572,-3.891 0.831,-2.775 2.881,-5.119 2.934,-8.184 0.008,-0.217 0.198,-0.456 0.353,-0.64 z"
   clip-path="url(#SVGID_8_)"
   transform="translate(-660.30628,-665.36639)" /><path
   style="fill:none;stroke:#79b5e3;stroke-width:2.15117049;stroke-linecap:round;stroke-linejoin:round;stroke-miterlimit:10"
   inkscape:connector-curvature="0"
   id="path1164"
   d="m 869.188,1042.289 c 3.11,0.885 5.96,-0.884 8.834,-3.023 5.636,-4.191 11.369,-8.248 16.679,-12.859 1.053,-0.912 2.022,-1.92 3.051,-2.861 1.149,-1.05 1.862,-2.293 1.958,-3.881 0.06,-1.002 0.563,-1.803 1.288,-2.504 3.913,-3.789 8.916,-4.62 13.821,-2.297 0.908,0.431 1.567,1.023 2.026,1.94 3.042,6.062 6.102,12.113 9.201,18.145 0.556,1.081 0.438,1.407 -0.841,1.567 -1.967,0.246 -2.805,1.435 -2.638,3.281 0.154,1.695 1.033,2.443 3.082,2.492 1.778,0.045 3.561,-0.036 5.34,0.021 1.141,0.037 1.63,-0.502 1.875,-1.541 0.5,-2.115 0.218,-4.213 -0.042,-6.311 -0.823,-6.628 -1.67,-13.253 -2.502,-19.88 -0.061,-0.477 -0.049,-0.964 -0.126,-1.437 -0.124,-0.76 0.224,-1.043 0.935,-1.108 2.681,-0.246 5.355,-0.542 8.036,-0.766 0.926,-0.078 1.774,0.385 2.651,0.622 4.272,1.154 8.539,2.312 12.998,2.513 1.067,0.049 2.13,0.047 3.138,-0.29 0.844,-0.283 1.203,0.011 1.509,0.774 1.976,4.929 4.701,9.365 8.693,12.937 0.646,0.578 0.605,1.074 0.157,1.74 -1.772,2.634 -3.522,5.281 -5.25,7.945 -0.447,0.692 -0.937,0.94 -1.79,0.809 -3.199,-0.499 -4.505,0.755 -4.331,3.941 0.052,0.953 0.456,1.249 1.339,1.239 2.406,-0.026 4.812,-0.016 7.216,-0.01 0.56,0 1.03,-0.162 1.433,-0.557 3.884,-3.812 7.627,-7.743 10.695,-12.27 1.259,-1.858 1.714,-3.682 1.017,-5.963 -0.904,-2.956 -0.66,-6.093 -0.717,-9.164 -0.022,-1.163 0.733,-0.745 1.282,-0.545 4.295,1.559 8.528,3.307 12.889,4.649 2.7,0.832 4.203,2.315 5.135,4.965 1.334,3.788 3.434,7.315 3.621,11.472 0.022,0.512 0.247,1.029 0.454,1.513 0.622,1.453 1.226,1.637 2.537,0.822 3.352,-2.082 4.073,-3.962 2.994,-7.763 -1.748,-6.15 -3.506,-12.3 -5.215,-18.462 -0.253,-0.91 -0.726,-1.505 -1.516,-1.979 -2.021,-1.211 -4.062,-2.399 -5.997,-3.74 -3.28,-2.271 -4.933,-5.37 -4.133,-9.424 0.814,-4.144 -0.055,-8.029 -1.56,-11.839 -0.812,-2.056 -1.607,-4.131 -2.77,-6.021 -0.454,-0.737 -0.138,-1.119 0.316,-1.604 6.038,-6.444 9.554,-14.156 11.095,-22.761 1.279,-7.148 0.695,-14.096 -3.158,-20.489 -2.273,-3.774 -5.283,-6.617 -9.786,-7.44 -3.075,-0.562 -6.026,-0.049 -8.85,1.27 -1.844,0.86 -3.558,1.927 -5.083,3.266 -1.936,1.695 -2.165,4.243 -0.623,6.21 1.484,1.89 4.138,2.188 6.194,0.65 1.239,-0.926 2.476,-1.831 3.956,-2.34 2.477,-0.85 4.243,-0.326 5.819,1.791 1.955,2.624 3.021,5.632 3.121,8.854 0.296,9.569 -2.796,17.932 -9.281,25.017 -0.698,0.763 -1.332,0.979 -2.38,0.543 -2.688,-1.116 -5.521,-1.578 -8.448,-1.591 -9.098,-0.038 -18.153,0.628 -27.209,1.412 -7.374,0.64 -14.741,1.32 -22.029,2.662 -1.178,0.217 -2.389,0.454 -3.473,0.935 -2.085,0.925 -4.179,0.974 -6.35,0.526 -4.592,-0.947 -8.786,-2.785 -12.531,-5.612 -0.533,-0.402 -1.085,-0.844 -1.461,-1.382 -1.405,-2.015 -3.386,-3.089 -5.704,-3.633 -0.879,-0.207 -1.585,-0.639 -2.197,-1.29 -1.744,-1.86 -3.541,-3.683 -4.956,-5.811 -0.711,-1.068 -1.081,-0.79 -1.539,0.128 -0.964,1.932 -1.508,3.964 -1.302,6.124 0.077,0.818 -0.124,1.229 -0.892,1.523 -2.899,1.114 -4.95,3.092 -6.507,5.827 -0.951,1.672 -2.549,2.984 -3.894,4.421 -1.493,1.593 -1.54,3.383 0.044,4.886 0.619,0.587 1.021,1.209 1.312,2 0.655,1.779 2.301,2.765 4.147,2.282 6.271,-1.635 10.658,1.925 12.394,7.584 0.241,0.785 0.338,1.55 0.226,2.399 -0.286,2.165 0.35,4.297 0.387,6.458 0.134,7.778 -0.158,15.475 -5.314,21.938 -2.796,3.504 -6.312,6.328 -9.441,9.523 -0.403,0.41 -0.896,0.746 -1.249,1.195 -1.062,1.348 -2.348,1.837 -4.118,1.788 -2.998,-0.081 -4.511,1.956 -4.039,4.931 0.124,0.785 0.597,0.904 1.212,0.908 1.492,0.013 2.983,0.01 5.135,0.01 z"
   stroke-miterlimit="10"
   clip-path="url(#SVGID_8_)"
   transform="matrix(1.3653704,0,0,1.367096,-868.35419,-1259.9805)" /><path
   style="fill:#79b5e3"
   inkscape:connector-curvature="0"
   id="path1168"
   d="m 939.172,999.199 c 2.288,0 4.143,-1.854 4.143,-4.143 0,-2.289 -1.854,-4.143 -4.143,-4.143 -2.289,0 -4.144,1.854 -4.144,4.143 0,2.289 1.856,4.143 4.144,4.143"
   clip-path="url(#SVGID_8_)"
   transform="translate(-506.52963,-909.23441)" /><path
   style="fill:#c6262c"
   inkscape:connector-curvature="0"
   id="path1172"
   d="m 838.922,807.207 c 2.287,0 4.143,-1.855 4.143,-4.144 0,-2.289 -1.855,-4.143 -4.143,-4.143 -2.288,0 -4.143,1.854 -4.143,4.143 0,2.289 1.855,4.144 4.143,4.144"
   clip-path="url(#SVGID_8_)"
   transform="translate(-660.30628,-665.36639)" /><path
   style="fill:#79b5e3"
   inkscape:connector-curvature="0"
   id="path1188"
   d="m 946.201,1075.764 c 1.725,0 3.123,-1.398 3.123,-3.123 0,-1.725 -1.398,-3.123 -3.123,-3.123 -1.725,0 -3.122,1.398 -3.122,3.123 0,1.725 1.398,3.123 3.122,3.123"
   clip-path="url(#SVGID_8_)"
   transform="translate(-660.30628,-665.36639)" /><path
   style="fill:none;stroke:#79b5e3;stroke-width:2.93899989;stroke-linecap:round;stroke-linejoin:round;stroke-miterlimit:10"
   inkscape:connector-curvature="0"
   id="path1192"
   d="m 921.642,1109.219 h -2.903 c -0.224,-0.088 -0.447,-0.181 -0.674,-0.262 -1.263,-0.446 -1.522,-1.59 -0.57,-2.544 0.366,-0.366 0.766,-0.706 1.128,-1.071 0.425,-0.429 0.973,-0.771 1.226,-1.342 0.797,-1.792 1.66,-3.559 2.146,-5.472 0.1,-0.393 0.243,-0.775 0.435,-1.14 0.63,-1.203 0.952,-2.501 0.999,-3.841 0.104,-3 -0.234,-5.939 -1.337,-8.769 -0.288,-0.737 -0.506,-1.5 -0.824,-2.233 -0.373,-0.863 -0.861,-1.708 -1.073,-2.608 -0.347,-1.473 -0.753,-2.932 -1.079,-4.41 -0.096,-0.433 -0.097,-0.893 -0.236,-1.309 -0.608,-1.812 -1.447,-3.495 -2.974,-4.734 -1.061,-0.862 -2.189,-1.668 -3.624,-1.652 -1.324,0.014 -2.264,-0.722 -3.257,-1.396 -0.222,-0.15 -0.317,-0.396 -0.366,-0.663 -0.04,-0.216 -0.122,-0.425 -0.187,-0.637 v -2.005 c 0.236,-0.609 0.53,-1.178 1.018,-1.64 0.257,-0.241 0.452,-0.543 0.512,-0.906 0.138,-0.856 0.532,-1.612 0.919,-2.37 0.15,-0.295 0.222,-0.657 0.539,-0.824 0.561,-0.294 0.87,-0.855 1.363,-1.22 0.199,-0.146 0.301,-0.376 0.329,-0.626 0.078,-0.724 -0.021,-1.404 -0.49,-1.998 -0.299,-0.378 -0.607,-0.757 -0.748,-1.229 -0.1,-0.338 -0.436,-0.714 -0.07,-1.024 0.373,-0.317 0.773,-0.022 1.139,0.144 0.114,0.052 0.222,0.141 0.307,0.235 0.973,1.093 2.283,1.678 3.545,2.33 0.364,0.188 0.642,0.078 0.79,-0.326 0.193,-0.521 0.393,-1.042 0.608,-1.555 0.216,-0.515 0.576,-0.644 1.074,-0.385 0.263,0.136 0.556,0.262 0.753,0.47 0.774,0.82 1.672,1.51 2.409,2.371 0.6,0.701 1.247,1.355 1.775,2.122 1.127,1.634 1.965,3.433 2.98,5.13 0.705,1.18 1.643,2.073 2.617,2.975 0.2,0.184 0.442,0.282 0.704,0.31 0.959,0.103 1.897,0.039 2.761,-0.445 0.778,-0.438 1.601,-0.682 2.504,-0.638 0.313,0.015 0.656,0.069 0.933,-0.096 0.702,-0.416 1.504,-0.389 2.261,-0.532 1.576,-0.296 3.177,-0.388 4.741,-0.853 1.395,-0.414 2.797,-0.845 4.24,-1.115 1.177,-0.22 2.338,-0.512 3.49,-0.887 1.524,-0.495 3.149,-0.702 4.772,-0.764 0.257,-0.01 0.526,-0.02 0.758,-0.159 0.399,-0.242 0.837,-0.269 1.29,-0.271 2.547,-0.01 5.094,-0.026 7.642,-0.041 0.3,-10e-4 0.593,-0.013 0.877,-0.129 1.917,-0.798 3.807,-1.645 5.39,-3.031 0.404,-0.354 0.806,-0.705 1.259,-1.006 1.063,-0.705 2.047,-1.525 3.062,-2.293 0.73,-0.553 1.265,-1.385 1.91,-2.071 0.9,-0.956 1.745,-1.973 2.526,-3.026 0.667,-0.902 1.311,-1.84 1.678,-2.917 0.147,-0.435 0.091,-0.98 0.335,-1.331 0.603,-0.869 0.87,-1.881 1.363,-2.795 0.416,-0.769 0.934,-1.468 1.365,-2.226 0.779,-1.367 1.88,-2.463 3.134,-3.41 0.521,0 1.244,-0.203 1.505,0.057 0.261,0.26 0.058,0.982 0.058,1.502 v 0.891 c -0.534,1.103 -0.86,2.294 -1.202,3.449 -0.627,2.118 -1.316,4.208 -2.091,6.272 -0.402,1.07 -0.873,2.13 -1.435,3.127 -1.146,2.035 -2.641,3.826 -4.147,5.604 -0.107,0.128 -0.219,0.268 -0.359,0.349 -0.934,0.536 -1.534,1.433 -2.329,2.118 -0.755,0.651 -1.548,1.255 -2.289,1.926 -0.944,0.854 -2.141,1.388 -3.069,2.283 -0.56,0.539 -0.85,1.149 -0.755,1.933 0.095,0.79 0.22,1.581 0.245,2.374 0.103,3.188 0.06,6.377 -0.063,9.564 -0.037,0.945 0.118,1.89 0.496,2.77 0.534,1.239 1.222,2.409 1.666,3.689 0.064,0.188 0.195,0.354 0.299,0.53 0.715,1.221 1.597,2.367 1.748,3.845 0.057,0.553 0.12,1.105 0.195,1.654 0.218,1.591 0.225,3.173 -0.119,4.752 -0.13,0.599 -0.473,0.947 -1.059,1.074 -0.885,0.192 -1.775,0.155 -2.662,0.05 -0.42,-0.05 -0.761,-0.285 -0.969,-0.677 -0.427,-0.806 -0.213,-2.305 0.479,-2.896 0.456,-0.394 0.495,-0.807 0.232,-1.279 -0.272,-0.489 -0.457,-1.01 -0.639,-1.535 -0.271,-0.791 -0.569,-1.569 -1.13,-2.219 -0.275,-0.32 -0.598,-0.567 -1.008,-0.426 -0.469,0.161 -0.31,0.611 -0.3,0.968 0.002,0.128 0.063,0.253 0.074,0.382 0.116,1.219 0.241,2.451 -0.07,3.647 -0.404,1.558 -1.188,2.999 -1.475,4.599 -0.02,0.106 -0.067,0.221 -0.136,0.303 -0.537,0.66 -0.68,1.468 -0.887,2.257 -0.191,0.731 -0.479,1.436 -0.62,2.184 -0.055,0.29 -0.225,0.541 -0.472,0.735 -0.665,0.521 -1.386,0.841 -2.26,0.754 -0.404,-0.039 -0.811,0.018 -1.219,0.09 -1.095,0.192 -2.493,-0.932 -2.565,-2.027 -0.067,-1.056 0.489,-1.914 1.562,-2.262 0.608,-0.199 0.973,-0.587 1.207,-1.139 0.117,-0.276 0.289,-0.515 0.437,-0.771 0.586,-1.02 1.113,-2.08 0.969,-3.295 -0.151,-1.273 -0.623,-2.476 -1.477,-3.421 -0.963,-1.068 -1.744,-2.265 -2.63,-3.385 -0.319,-0.404 -0.688,-0.776 -0.965,-1.214 -0.622,-0.984 -1.223,-1.981 -1.841,-2.967 -0.542,-0.864 -0.779,-0.946 -1.738,-0.628 -0.245,0.082 -0.502,0.153 -0.727,0.276 -1.584,0.88 -3.411,0.968 -5.089,1.557 -1.111,0.39 -2.362,0.381 -3.474,0.77 -1.629,0.57 -3.331,0.877 -4.945,1.48 -0.64,0.24 -1.374,0.161 -1.964,0.582 -0.453,0.324 -0.981,0.467 -1.521,0.477 -1.041,0.018 -1.764,0.726 -2.62,1.142 -0.146,0.07 -0.233,0.28 -0.321,0.441 -0.372,0.666 -0.491,1.415 -0.507,2.146 -0.041,1.87 -0.317,3.728 -0.245,5.604 0.037,0.981 0.015,1.966 0.004,2.949 -0.009,0.778 -0.005,1.569 -0.276,2.31 -0.468,1.271 -1.094,2.404 -2.606,2.688 -1.16,0.219 -2.303,0.146 -3.407,-0.244 -0.782,-0.275 -0.958,-0.818 -0.604,-1.551 0.098,-0.199 0.173,-0.41 0.258,-0.615 0.248,-0.594 0.664,-0.946 1.326,-1.046 0.748,-0.112 1.111,-0.51 1.13,-1.278 0.014,-0.551 -0.089,-1.105 -0.162,-1.654 -0.026,-0.196 -0.08,-0.429 -0.342,-0.446 -0.235,-0.017 -0.276,0.208 -0.373,0.359 -1.142,1.771 -1.833,3.784 -2.987,5.55 -0.069,0.107 -0.101,0.238 -0.152,0.357 -0.421,0.987 -0.792,2.002 -1.281,2.955 -0.294,0.572 -0.612,1.125 -0.882,1.717 -0.341,0.75 -0.838,1.445 -1.733,1.691 -0.305,0.081 -0.592,0.219 -0.886,0.332 z"
   stroke-miterlimit="10"
   clip-path="url(#SVGID_8_)"
   transform="translate(-660.30628,-665.36639)" />







<image
   sodipodi:absref="/home/habi/skola/sose2021-dl4nlp/dl4nlp2021/lectures/lecture01/img/image-202104051016.jpeg"
   xlink:href="image-202104051016.jpeg"
   style="stroke-width:0.49520817"
   width="387.71573"
   height="474.3056"
   preserveAspectRatio="none"
   id="image894"
   x="542.40601"
   y="7.9232306" /></svg>